Coordinates
version=1
nRows=5
nColumns=63
inDegrees=yes

Units are S.I. units (second, meters, Newtons, ...)
If the header above contains a line with 'inDegrees', this indicates whether rotational values are in degrees (yes) or radians (no).

endheader
time	pelvis_tilt	pelvis_list	pelvis_rotation	pelvis_tx	pelvis_ty	pelvis_tz	hip_flexion_r	hip_adduction_r	hip_rotation_r	knee_angle_r	knee_angle_r_beta	ankle_angle_r	subtalar_angle_r	mtp_angle_r	hip_flexion_l	hip_adduction_l	hip_rotation_l	knee_angle_l	knee_angle_l_beta	ankle_angle_l	subtalar_angle_l	mtp_angle_l	L5_S1_Flex_Ext	L5_S1_Lat_Bending	L5_S1_axial_rotation	L4_L5_Flex_Ext	L4_L5_Lat_Bending	L4_L5_axial_rotation	L3_L4_Flex_Ext	L3_L4_Lat_Bending	L3_L4_axial_rotation	L2_L3_Flex_Ext	L2_L3_Lat_Bending	L2_L3_axial_rotation	L1_L2_Flex_Ext	L1_L2_Lat_Bending	L1_L2_axial_rotation	L1_T12_Flex_Ext	L1_T12_Lat_Bending	L1_T12_axial_rotation	Abs_r3	Abs_r2	Abs_r1	Abs_t1	Abs_t2	neck_flexion	neck_bending	neck_rotation	arm_flex_r	arm_add_r	arm_rot_r	elbow_flex_r	pro_sup_r	wrist_flex_r	wrist_dev_r	arm_flex_l	arm_add_l	arm_rot_l	elbow_flex_l	pro_sup_l	wrist_flex_l	wrist_dev_l
      1.48333333	     -0.82174675	     -3.25154767	     83.94456965	      0.26378646	      0.97618860	      0.53639026	      3.57125208	     -1.44193077	      2.16379712	     17.05652762	      0.29769257	     31.08817095	     -4.72102179	      0.00000000	     -2.43320451	      2.61225255	      8.43445824	      4.49743103	      0.07849498	     29.90053829	    -14.09119023	      0.00000000	      0.06131788	     -0.12884404	      0.41051126	      0.11387344	     -0.17136258	      0.43616821	      0.10073915	     -0.31327141	      0.43616821	      0.07008021	     -0.31327141	      0.35919735	      0.05693979	     -0.26273877	      0.33354040	      0.03503704	     -0.19957942	      0.30788345	      0.43798750	     -1.45750959	      2.28314048	      0.00000000	      0.00000000	      9.44455963	      4.85094879	      1.15740068	     38.65729087	    -10.72055858	     34.70720293	    149.82645628	     89.10500635	     -5.00714137	     -5.02373916	     38.83037085	     -4.04029552	     29.35593614	    143.70533133	     87.97492775	    -11.51377616	     -3.29578864
      1.50000000	     -0.92899455	     -3.09039764	     83.59357179	      0.26567031	      0.97584900	      0.53520074	      3.28587865	     -1.37864142	      3.07608892	     16.95992736	      0.29600657	     31.05777982	     -5.50952602	      0.00000000	     -2.73524634	      2.69486959	      8.68814240	      4.43878844	      0.07747147	     29.78054174	    -14.85304728	      0.00000000	      0.06986552	     -0.13269454	      0.35193415	      0.12974727	     -0.17648374	      0.37393003	      0.11478207	     -0.32263350	      0.37393003	      0.07984931	     -0.32263350	      0.30794238	      0.06487713	     -0.27059070	      0.28594650	      0.03992116	     -0.20554384	      0.26395061	      0.49904246	     -1.50106717	      1.95735216	      0.00000000	      0.00000000	      9.52128110	      4.43987297	      1.53309297	     38.91184653	    -10.10889841	     35.14112635	    149.83427014	     89.08544065	     -3.12846736	     -5.24618556	     38.87810821	     -4.09061127	     26.96514142	    144.48321761	     87.97147543	     -6.28712066	      1.78621362
      1.51666667	     -0.97429752	     -2.97940855	     83.42856160	      0.26696443	      0.97562536	      0.53400941	      3.04263699	     -1.35831893	      3.16774710	     16.94766729	      0.29579259	     31.09886762	     -5.45259441	      0.00000000	     -2.91102529	      2.71047128	      8.56187916	      4.47188084	      0.07804904	     29.91869932	    -14.96545586	      0.00000000	      0.09698730	     -0.13409257	      0.30125601	      0.18011511	     -0.17834312	      0.32008451	      0.15934043	     -0.32603268	      0.32008451	      0.11084678	     -0.32603268	      0.26359901	      0.09006241	     -0.27344158	      0.24477051	      0.05541854	     -0.20770940	      0.22594201	      0.69277058	     -1.51688201	      1.67549555	      0.00000000	      0.00000000	      9.36460253	      4.29788419	      1.51834346	     39.00343619	    -10.08959767	     35.44904484	    149.83834534	     89.09543163	     -2.93078971	     -5.43945572	     39.01653737	     -4.25487225	     26.51687585	    144.19503120	     87.92742366	     -6.41310569	      1.89532498
      1.53333333	     -0.91828666	     -2.70950902	     83.28242206	      0.26787314	      0.97586659	      0.53235628	      2.41271951	     -1.28087642	      3.28753881	     16.57476882	      0.28928429	     30.97060660	     -5.38716221	      0.00000000	     -3.24082488	      2.66650643	      8.09252539	      4.57432901	      0.07983710	     30.19028592	    -14.73610531	      0.00000000	      0.10671996	     -0.11984052	      0.28551842	      0.19818964	     -0.15938789	      0.30336333	      0.17533023	     -0.29138025	      0.30336333	      0.12197025	     -0.29138025	      0.24982862	      0.09910016	     -0.24437879	      0.23198372	      0.06097979	     -0.18563297	      0.21413882	      0.76229003	     -1.35565995	      1.58796782	      0.00000000	      0.00000000	      8.60835747	      2.94533141	      0.55938969	     39.17909970	    -10.34817227	     35.02014419	    149.82336640	     89.03124007	     -2.23335013	     -4.53843343	     38.84951913	     -4.40213479	     26.02328676	    144.24366742	     87.85065828	     -7.21941044	      4.46571066
      1.55000000	     -0.97904019	     -2.55016607	     83.21646992	      0.26869596	      0.97611414	      0.53100818	      1.96920340	     -1.32032645	      3.30210865	     16.30563274	      0.28458698	     30.73889495	     -5.37156766	      0.00000000	     -3.36066701	      2.73313942	      7.72915648	      4.72909852	      0.08253834	     30.45463682	    -14.66883296	      0.00000000	      0.13442946	     -0.12932960	      0.31919231	      0.24964895	     -0.17200836	      0.33914183	      0.22085416	     -0.31445198	      0.33914183	      0.15363943	     -0.31445198	      0.27929327	      0.12483120	     -0.26372891	      0.25934375	      0.07681299	     -0.20033154	      0.23939423	      0.96021619	     -1.46300226	      1.77525187	      0.00000000	      0.00000000	      7.56119316	      2.64885328	     -0.51398921	     39.05360506	    -10.78592089	     34.36979876	    149.80065677	     89.00128696	     -2.45823682	     -3.36431027	     38.71797347	     -4.28286225	     25.89080913	    143.61159853	     87.70366362	     -7.84987953	      5.15765371
